<svg width="1061" height="690" viewBox="0 0 1061 690" fill="none" xmlns="http://www.w3.org/2000/svg">
<path d="M273.28 0C360.726 71.2039 533.432 219.021 524.681 240.661L597.874 313.854C711.508 333.677 942.556 373.323 957.672 373.323C972.788 373.323 1032.52 584.283 1060.5 689.763L635.664 633.078L129.877 486.891L0 240.661C18.033 170.319 56.804 32.3401 67.6238 43.1599C78.4436 53.9797 209.236 18.8949 273.28 0Z" fill="#52D5FF"/>
<path d="M336.221 105.414C402.249 154.854 532.653 257.491 526.045 272.516L581.31 323.337C667.112 337.102 841.567 364.63 852.981 364.63C864.394 364.63 909.498 511.109 930.623 584.349L609.844 544.99L227.943 443.486L129.877 272.516C143.494 223.674 172.768 127.869 180.938 135.382C189.107 142.894 287.864 118.533 336.221 105.414Z" fill="#6AFF52"/>
<path d="M378.053 192.131C429.846 223.668 532.135 289.137 526.952 298.721L570.302 331.139C637.604 339.919 774.448 357.478 783.401 357.478C792.353 357.478 827.732 450.914 844.303 497.631L592.684 472.525L293.12 407.778L216.197 298.721C226.878 267.567 249.841 206.455 256.249 211.247C262.657 216.039 340.122 200.5 378.053 192.131Z" fill="#FF5252"/>
<path d="M418.729 249.015C456.68 268.807 531.631 309.896 527.833 315.911L559.598 336.257C608.913 341.767 709.184 352.787 715.744 352.787C722.304 352.787 748.228 411.428 760.37 440.748L575.998 424.991L356.495 384.356L300.13 315.911C307.956 296.358 324.782 258.004 329.478 261.012C334.173 264.019 390.935 254.267 418.729 249.015Z" fill="#E752FF"/>
</svg>
