<svg width="1600" height="1128" viewBox="0 0 1600 1128" fill="none" xmlns="http://www.w3.org/2000/svg">
<g filter="url(#filter0_f_234_246)">
<path d="M543.28 158C630.726 229.204 803.432 377.021 794.681 398.661L867.874 471.854C981.508 491.677 1212.56 531.323 1227.67 531.323C1242.79 531.323 1302.52 742.283 1330.5 847.763L905.664 791.078L399.877 644.891L270 398.661C288.033 328.319 326.804 190.34 337.624 201.16C348.444 211.98 479.236 176.895 543.28 158Z" fill="#52D5FF"/>
<path d="M606.221 263.414C672.249 312.854 802.653 415.491 796.045 430.516L851.31 481.337C937.112 495.102 1111.57 522.63 1122.98 522.63C1134.39 522.63 1179.5 669.109 1200.62 742.349L879.844 702.99L497.943 601.486L399.877 430.516C413.494 381.674 442.768 285.869 450.938 293.382C459.107 300.894 557.864 276.533 606.221 263.414Z" fill="#6AFF52"/>
<path d="M648.053 350.131C699.846 381.668 802.135 447.137 796.952 456.721L840.302 489.139C907.604 497.919 1044.45 515.478 1053.4 515.478C1062.35 515.478 1097.73 608.914 1114.3 655.631L862.684 630.525L563.12 565.778L486.197 456.721C496.878 425.567 519.841 364.455 526.249 369.247C532.657 374.039 610.122 358.5 648.053 350.131Z" fill="#FF5252"/>
<path d="M688.729 407.015C726.68 426.807 801.631 467.896 797.833 473.911L829.598 494.257C878.913 499.767 979.184 510.787 985.744 510.787C992.304 510.787 1018.23 569.428 1030.37 598.748L845.998 582.991L626.495 542.356L570.13 473.911C577.956 454.358 594.782 416.004 599.478 419.012C604.173 422.019 660.935 412.267 688.729 407.015Z" fill="#E752FF"/>
</g>
<defs>
<filter id="filter0_f_234_246" x="-10" y="-122" width="1620.5" height="1249.76" filterUnits="userSpaceOnUse" color-interpolation-filters="sRGB">
<feFlood flood-opacity="0" result="BackgroundImageFix"/>
<feBlend mode="normal" in="SourceGraphic" in2="BackgroundImageFix" result="shape"/>
<feGaussianBlur stdDeviation="140" result="effect1_foregroundBlur_234_246"/>
</filter>
</defs>
</svg>
