<svg width="114" height="114" viewBox="0 0 114 114" fill="none" xmlns="http://www.w3.org/2000/svg">
<path d="M57 21.375C33.25 21.375 12.9675 36.1475 4.75 57C12.9675 77.8525 33.25 92.625 57 92.625C80.75 92.625 101.033 77.8525 109.25 57C101.033 36.1475 80.75 21.375 57 21.375ZM57 80.75C43.89 80.75 33.25 70.11 33.25 57C33.25 43.89 43.89 33.25 57 33.25C70.11 33.25 80.75 43.89 80.75 57C80.75 70.11 70.11 80.75 57 80.75ZM57 42.75C49.115 42.75 42.75 49.115 42.75 57C42.75 64.885 49.115 71.25 57 71.25C64.885 71.25 71.25 64.885 71.25 57C71.25 49.115 64.885 42.75 57 42.75Z" fill="black"/>
</svg>
