<svg width="44" height="48" viewBox="0 0 44 48" fill="none" xmlns="http://www.w3.org/2000/svg">
<g clip-path="url(#clip0_239_249)">
<path d="M34.3014 7.52C32.4704 5.43899 31.4614 2.76649 31.4621 0H23.1854V33.0667C23.1215 34.8561 22.3627 36.551 21.0687 37.7945C19.7746 39.038 18.0464 39.7331 16.2479 39.7333C12.4443 39.7333 9.28357 36.64 9.28357 32.8C9.28357 28.2133 13.73 24.7733 18.3104 26.1867V17.76C9.06928 16.5333 0.979996 23.68 0.979996 32.8C0.979996 41.68 8.37285 48 16.2211 48C24.6318 48 31.4621 41.2 31.4621 32.8V16.0267C34.8184 18.4263 38.8479 19.7137 42.98 19.7067V11.4667C42.98 11.4667 37.9443 11.7067 34.3014 7.52Z" fill="white"/>
</g>
<defs>
<clipPath id="clip0_239_249">
<rect width="43" height="48" fill="white" transform="translate(0.5)"/>
</clipPath>
</defs>
</svg>
